<?xml version="1.0" encoding="UTF-8" standalone="no"?>
<!DOCTYPE svg PUBLIC "-//W3C//DTD SVG 1.1//EN"
 "http://www.w3.org/Graphics/SVG/1.1/DTD/svg11.dtd">
<!-- Generated by graphviz version 2.38.0 (20140413.2041)
 -->
<!-- Title: snakemake_dag Pages: 1 -->
<svg width="818pt" height="332pt"
 viewBox="0.00 0.00 818.17 332.00" xmlns="http://www.w3.org/2000/svg" xmlns:xlink="http://www.w3.org/1999/xlink">
<g id="graph0" class="graph" transform="scale(1 1) rotate(0) translate(4 328)">
<title>snakemake_dag</title>
<polygon fill="white" stroke="none" points="-4,4 -4,-328 814.172,-328 814.172,4 -4,4"/>
<!-- 0 -->
<g id="node1" class="node"><title>0</title>
<path fill="none" stroke="#d8b456" stroke-width="2" stroke-dasharray="5,2" d="M456,-36C456,-36 426,-36 426,-36 420,-36 414,-30 414,-24 414,-24 414,-12 414,-12 414,-6 420,-0 426,-0 426,-0 456,-0 456,-0 462,-0 468,-6 468,-12 468,-12 468,-24 468,-24 468,-30 462,-36 456,-36"/>
<text text-anchor="middle" x="441" y="-15" font-family="sans" font-size="10.00">report</text>
</g>
<!-- 1 -->
<g id="node2" class="node"><title>1</title>
<path fill="none" stroke="#5682d8" stroke-width="2" stroke-dasharray="5,2" d="M42,-108C42,-108 12,-108 12,-108 6,-108 0,-102 0,-96 0,-96 0,-84 0,-84 0,-78 6,-72 12,-72 12,-72 42,-72 42,-72 48,-72 54,-78 54,-84 54,-84 54,-96 54,-96 54,-102 48,-108 42,-108"/>
<text text-anchor="middle" x="27" y="-87" font-family="sans" font-size="10.00">PPC</text>
</g>
<!-- 1&#45;&gt;0 -->
<g id="edge1" class="edge"><title>1&#45;&gt;0</title>
<path fill="none" stroke="grey" stroke-width="2" d="M54.18,-75.1246C57.1102,-73.9437 60.086,-72.8703 63,-72 184.145,-35.817 334.675,-24.1285 403.499,-20.5215"/>
<polygon fill="grey" stroke="grey" stroke-width="2" points="404.012,-24.0005 413.827,-20.0095 403.666,-17.0091 404.012,-24.0005"/>
</g>
<!-- 2 -->
<g id="node3" class="node"><title>2</title>
<path fill="none" stroke="#56b1d8" stroke-width="2" stroke-dasharray="5,2" d="M177.7,-108C177.7,-108 84.3004,-108 84.3004,-108 78.3004,-108 72.3004,-102 72.3004,-96 72.3004,-96 72.3004,-84 72.3004,-84 72.3004,-78 78.3004,-72 84.3004,-72 84.3004,-72 177.7,-72 177.7,-72 183.7,-72 189.7,-78 189.7,-84 189.7,-84 189.7,-96 189.7,-96 189.7,-102 183.7,-108 177.7,-108"/>
<text text-anchor="middle" x="131" y="-92" font-family="sans" font-size="10.00">explanationPlot</text>
<text text-anchor="middle" x="131" y="-82" font-family="sans" font-size="10.00">GOList: GOthreeComb</text>
</g>
<!-- 2&#45;&gt;0 -->
<g id="edge2" class="edge"><title>2&#45;&gt;0</title>
<path fill="none" stroke="grey" stroke-width="2" d="M189.946,-74.151C193.006,-73.4153 196.038,-72.6944 199,-72 271.367,-55.0336 356.313,-36.8208 403.876,-26.7766"/>
<polygon fill="grey" stroke="grey" stroke-width="2" points="404.659,-30.1885 413.722,-24.7012 403.215,-23.339 404.659,-30.1885"/>
</g>
<!-- 3 -->
<g id="node4" class="node"><title>3</title>
<path fill="none" stroke="#70d856" stroke-width="2" stroke-dasharray="5,2" d="M470.123,-108C470.123,-108 411.877,-108 411.877,-108 405.877,-108 399.877,-102 399.877,-96 399.877,-96 399.877,-84 399.877,-84 399.877,-78 405.877,-72 411.877,-72 411.877,-72 470.123,-72 470.123,-72 476.123,-72 482.123,-78 482.123,-84 482.123,-84 482.123,-96 482.123,-96 482.123,-102 476.123,-108 470.123,-108"/>
<text text-anchor="middle" x="441" y="-87" font-family="sans" font-size="10.00">recoveryOfSim</text>
</g>
<!-- 3&#45;&gt;0 -->
<g id="edge3" class="edge"><title>3&#45;&gt;0</title>
<path fill="none" stroke="grey" stroke-width="2" d="M441,-71.6966C441,-63.9827 441,-54.7125 441,-46.1124"/>
<polygon fill="grey" stroke="grey" stroke-width="2" points="444.5,-46.1043 441,-36.1043 437.5,-46.1044 444.5,-46.1043"/>
</g>
<!-- 4 -->
<g id="node5" class="node"><title>4</title>
<path fill="none" stroke="#56d86b" stroke-width="2" stroke-dasharray="5,2" d="M370.133,-108C370.133,-108 311.867,-108 311.867,-108 305.867,-108 299.867,-102 299.867,-96 299.867,-96 299.867,-84 299.867,-84 299.867,-78 305.867,-72 311.867,-72 311.867,-72 370.133,-72 370.133,-72 376.133,-72 382.133,-78 382.133,-84 382.133,-84 382.133,-96 382.133,-96 382.133,-102 376.133,-108 370.133,-108"/>
<text text-anchor="middle" x="341" y="-87" font-family="sans" font-size="10.00">GOEnrichment</text>
</g>
<!-- 4&#45;&gt;0 -->
<g id="edge4" class="edge"><title>4&#45;&gt;0</title>
<path fill="none" stroke="grey" stroke-width="2" d="M365.463,-71.8761C378.296,-62.8931 394.196,-51.7625 408.094,-42.0341"/>
<polygon fill="grey" stroke="grey" stroke-width="2" points="410.258,-44.7917 416.443,-36.1898 406.244,-39.0571 410.258,-44.7917"/>
</g>
<!-- 5 -->
<g id="node6" class="node"><title>5</title>
<path fill="none" stroke="#ced856" stroke-width="2" stroke-dasharray="5,2" d="M270.346,-108C270.346,-108 219.654,-108 219.654,-108 213.654,-108 207.654,-102 207.654,-96 207.654,-96 207.654,-84 207.654,-84 207.654,-78 213.654,-72 219.654,-72 219.654,-72 270.346,-72 270.346,-72 276.346,-72 282.346,-78 282.346,-84 282.346,-84 282.346,-96 282.346,-96 282.346,-102 276.346,-108 270.346,-108"/>
<text text-anchor="middle" x="245" y="-87" font-family="sans" font-size="10.00">summaryPlot</text>
</g>
<!-- 5&#45;&gt;0 -->
<g id="edge5" class="edge"><title>5&#45;&gt;0</title>
<path fill="none" stroke="grey" stroke-width="2" d="M282.639,-75.0398C285.467,-74.0064 288.278,-72.984 291,-72 329.506,-58.0829 373.715,-42.5117 404.11,-31.8687"/>
<polygon fill="grey" stroke="grey" stroke-width="2" points="405.577,-35.0636 413.86,-28.4578 403.266,-28.4563 405.577,-35.0636"/>
</g>
<!-- 6 -->
<g id="node7" class="node"><title>6</title>
<path fill="none" stroke="#ced856" stroke-width="2" stroke-dasharray="5,2" d="M798.346,-108C798.346,-108 747.654,-108 747.654,-108 741.654,-108 735.654,-102 735.654,-96 735.654,-96 735.654,-84 735.654,-84 735.654,-78 741.654,-72 747.654,-72 747.654,-72 798.346,-72 798.346,-72 804.346,-72 810.346,-78 810.346,-84 810.346,-84 810.346,-96 810.346,-96 810.346,-102 804.346,-108 798.346,-108"/>
<text text-anchor="middle" x="773" y="-87" font-family="sans" font-size="10.00">summaryPlot</text>
</g>
<!-- 6&#45;&gt;0 -->
<g id="edge6" class="edge"><title>6&#45;&gt;0</title>
<path fill="none" stroke="grey" stroke-width="2" d="M735.768,-74.6346C732.82,-73.6832 729.873,-72.7909 727,-72 639.18,-47.8259 533.131,-31.4058 478.138,-23.814"/>
<polygon fill="grey" stroke="grey" stroke-width="2" points="478.541,-20.3367 468.16,-22.4565 477.597,-27.2728 478.541,-20.3367"/>
</g>
<!-- 7 -->
<g id="node8" class="node"><title>7</title>
<path fill="none" stroke="#ced856" stroke-width="2" stroke-dasharray="5,2" d="M562.346,-108C562.346,-108 511.654,-108 511.654,-108 505.654,-108 499.654,-102 499.654,-96 499.654,-96 499.654,-84 499.654,-84 499.654,-78 505.654,-72 511.654,-72 511.654,-72 562.346,-72 562.346,-72 568.346,-72 574.346,-78 574.346,-84 574.346,-84 574.346,-96 574.346,-96 574.346,-102 568.346,-108 562.346,-108"/>
<text text-anchor="middle" x="537" y="-87" font-family="sans" font-size="10.00">summaryPlot</text>
</g>
<!-- 7&#45;&gt;0 -->
<g id="edge7" class="edge"><title>7&#45;&gt;0</title>
<path fill="none" stroke="grey" stroke-width="2" d="M513.27,-71.6966C501.063,-62.796 486.015,-51.8232 472.816,-42.1989"/>
<polygon fill="grey" stroke="grey" stroke-width="2" points="474.6,-39.1681 464.457,-36.1043 470.475,-44.8241 474.6,-39.1681"/>
</g>
<!-- 8 -->
<g id="node9" class="node"><title>8</title>
<path fill="none" stroke="#5682d8" stroke-width="2" stroke-dasharray="5,2" d="M706,-108C706,-108 676,-108 676,-108 670,-108 664,-102 664,-96 664,-96 664,-84 664,-84 664,-78 670,-72 676,-72 676,-72 706,-72 706,-72 712,-72 718,-78 718,-84 718,-84 718,-96 718,-96 718,-102 712,-108 706,-108"/>
<text text-anchor="middle" x="691" y="-87" font-family="sans" font-size="10.00">PPC</text>
</g>
<!-- 8&#45;&gt;0 -->
<g id="edge8" class="edge"><title>8&#45;&gt;0</title>
<path fill="none" stroke="grey" stroke-width="2" d="M663.719,-75.4322C660.809,-74.1914 657.865,-73.0199 655,-72 594.538,-50.4778 521.473,-34.4119 478.253,-25.8877"/>
<polygon fill="grey" stroke="grey" stroke-width="2" points="478.678,-22.405 468.194,-23.9342 477.344,-29.2766 478.678,-22.405"/>
</g>
<!-- 9 -->
<g id="node10" class="node"><title>9</title>
<path fill="none" stroke="#5682d8" stroke-width="2" stroke-dasharray="5,2" d="M634,-108C634,-108 604,-108 604,-108 598,-108 592,-102 592,-96 592,-96 592,-84 592,-84 592,-78 598,-72 604,-72 604,-72 634,-72 634,-72 640,-72 646,-78 646,-84 646,-84 646,-96 646,-96 646,-102 640,-108 634,-108"/>
<text text-anchor="middle" x="619" y="-87" font-family="sans" font-size="10.00">PPC</text>
</g>
<!-- 9&#45;&gt;0 -->
<g id="edge9" class="edge"><title>9&#45;&gt;0</title>
<path fill="none" stroke="grey" stroke-width="2" d="M591.983,-75.9442C588.968,-74.5764 585.929,-73.2358 583,-72 547.757,-57.1327 506.754,-42.0611 477.895,-31.8107"/>
<polygon fill="grey" stroke="grey" stroke-width="2" points="478.818,-28.4249 468.223,-28.3944 476.487,-35.0252 478.818,-28.4249"/>
</g>
<!-- 10 -->
<g id="node11" class="node"><title>10</title>
<path fill="none" stroke="#d85656" stroke-width="2" stroke-dasharray="5,2" d="M205.128,-180C205.128,-180 156.872,-180 156.872,-180 150.872,-180 144.872,-174 144.872,-168 144.872,-168 144.872,-156 144.872,-156 144.872,-150 150.872,-144 156.872,-144 156.872,-144 205.128,-144 205.128,-144 211.128,-144 217.128,-150 217.128,-156 217.128,-156 217.128,-168 217.128,-168 217.128,-174 211.128,-180 205.128,-180"/>
<text text-anchor="middle" x="181" y="-159" font-family="sans" font-size="10.00">BRMSModle</text>
</g>
<!-- 10&#45;&gt;1 -->
<g id="edge10" class="edge"><title>10&#45;&gt;1</title>
<path fill="none" stroke="grey" stroke-width="2" d="M144.768,-144.94C123.392,-135.417 95.6128,-122.959 63.3256,-108.115"/>
<polygon fill="grey" stroke="grey" stroke-width="2" points="64.648,-104.871 54.101,-103.865 61.7191,-111.228 64.648,-104.871"/>
</g>
<!-- 10&#45;&gt;2 -->
<g id="edge12" class="edge"><title>10&#45;&gt;2</title>
<path fill="none" stroke="grey" stroke-width="2" d="M168.64,-143.697C162.767,-135.474 155.631,-125.483 149.158,-116.421"/>
<polygon fill="grey" stroke="grey" stroke-width="2" points="151.878,-114.207 143.217,-108.104 146.182,-118.276 151.878,-114.207"/>
</g>
<!-- 10&#45;&gt;4 -->
<g id="edge15" class="edge"><title>10&#45;&gt;4</title>
<path fill="none" stroke="grey" stroke-width="2" d="M217.306,-145.116C239.609,-135.359 268.447,-122.742 292.667,-112.146"/>
<polygon fill="grey" stroke="grey" stroke-width="2" points="294.283,-115.259 302.042,-108.044 291.477,-108.846 294.283,-115.259"/>
</g>
<!-- 10&#45;&gt;5 -->
<g id="edge17" class="edge"><title>10&#45;&gt;5</title>
<path fill="none" stroke="grey" stroke-width="2" d="M196.82,-143.697C204.57,-135.22 214.039,-124.864 222.524,-115.583"/>
<polygon fill="grey" stroke="grey" stroke-width="2" points="225.197,-117.846 229.362,-108.104 220.031,-113.123 225.197,-117.846"/>
</g>
<!-- 11 -->
<g id="node12" class="node"><title>11</title>
<path fill="none" stroke="#56d89a" stroke-width="2" stroke-dasharray="5,2" d="M256.214,-252C256.214,-252 137.786,-252 137.786,-252 131.786,-252 125.786,-246 125.786,-240 125.786,-240 125.786,-228 125.786,-228 125.786,-222 131.786,-216 137.786,-216 137.786,-216 256.214,-216 256.214,-216 262.214,-216 268.214,-222 268.214,-228 268.214,-228 268.214,-240 268.214,-240 268.214,-246 262.214,-252 256.214,-252"/>
<text text-anchor="middle" x="197" y="-236" font-family="sans" font-size="10.00">creatingHitTable</text>
<text text-anchor="middle" x="197" y="-226" font-family="sans" font-size="10.00">GeneListWK: GOthreeComb</text>
</g>
<!-- 11&#45;&gt;1 -->
<g id="edge11" class="edge"><title>11&#45;&gt;1</title>
<path fill="none" stroke="grey" stroke-width="2" d="M176.494,-215.871C146.244,-190.604 89.558,-143.254 55.3479,-114.679"/>
<polygon fill="grey" stroke="grey" stroke-width="2" points="57.4973,-111.914 47.5787,-108.189 53.0098,-117.286 57.4973,-111.914"/>
</g>
<!-- 11&#45;&gt;5 -->
<g id="edge18" class="edge"><title>11&#45;&gt;5</title>
<path fill="none" stroke="grey" stroke-width="2" d="M207.995,-215.94C214.077,-205.836 221.327,-192.586 226,-180 233.458,-159.912 238.346,-136.13 241.295,-118.205"/>
<polygon fill="grey" stroke="grey" stroke-width="2" points="244.781,-118.561 242.848,-108.144 237.863,-117.493 244.781,-118.561"/>
</g>
<!-- 11&#45;&gt;10 -->
<g id="edge27" class="edge"><title>11&#45;&gt;10</title>
<path fill="none" stroke="grey" stroke-width="2" d="M193.045,-215.697C191.282,-207.983 189.163,-198.712 187.197,-190.112"/>
<polygon fill="grey" stroke="grey" stroke-width="2" points="190.55,-189.073 184.91,-180.104 183.726,-190.633 190.55,-189.073"/>
</g>
<!-- 12 -->
<g id="node13" class="node"><title>12</title>
<path fill="none" stroke="#d88556" stroke-width="2" stroke-dasharray="5,2" d="M588.426,-252C588.426,-252 507.574,-252 507.574,-252 501.574,-252 495.574,-246 495.574,-240 495.574,-240 495.574,-228 495.574,-228 495.574,-222 501.574,-216 507.574,-216 507.574,-216 588.426,-216 588.426,-216 594.426,-216 600.426,-222 600.426,-228 600.426,-228 600.426,-240 600.426,-240 600.426,-246 594.426,-252 588.426,-252"/>
<text text-anchor="middle" x="548" y="-231" font-family="sans" font-size="10.00">creatingSimHitTable</text>
</g>
<!-- 12&#45;&gt;3 -->
<g id="edge13" class="edge"><title>12&#45;&gt;3</title>
<path fill="none" stroke="grey" stroke-width="2" d="M500.191,-215.953C483.391,-207.632 465.983,-195.903 455,-180 442.608,-162.057 439.561,-137.262 439.356,-118.399"/>
<polygon fill="grey" stroke="grey" stroke-width="2" points="442.856,-118.394 439.503,-108.344 435.857,-118.292 442.856,-118.394"/>
</g>
<!-- 12&#45;&gt;7 -->
<g id="edge21" class="edge"><title>12&#45;&gt;7</title>
<path fill="none" stroke="grey" stroke-width="2" d="M556.441,-215.825C564.179,-197.817 573.519,-168.751 567,-144 564.508,-134.539 559.898,-124.993 555.027,-116.66"/>
<polygon fill="grey" stroke="grey" stroke-width="2" points="557.986,-114.79 549.727,-108.155 552.045,-118.493 557.986,-114.79"/>
</g>
<!-- 12&#45;&gt;9 -->
<g id="edge25" class="edge"><title>12&#45;&gt;9</title>
<path fill="none" stroke="grey" stroke-width="2" d="M560.574,-215.87C567.682,-205.743 576.432,-192.493 583,-180 593.617,-159.804 603.174,-135.758 609.768,-117.754"/>
<polygon fill="grey" stroke="grey" stroke-width="2" points="613.12,-118.777 613.204,-108.182 606.531,-116.411 613.12,-118.777"/>
</g>
<!-- 13 -->
<g id="node14" class="node"><title>13</title>
<path fill="none" stroke="#d85656" stroke-width="2" stroke-dasharray="5,2" d="M546.411,-180C546.411,-180 475.589,-180 475.589,-180 469.589,-180 463.589,-174 463.589,-168 463.589,-168 463.589,-156 463.589,-156 463.589,-150 469.589,-144 475.589,-144 475.589,-144 546.411,-144 546.411,-144 552.411,-144 558.411,-150 558.411,-156 558.411,-156 558.411,-168 558.411,-168 558.411,-174 552.411,-180 546.411,-180"/>
<text text-anchor="middle" x="511" y="-164" font-family="sans" font-size="10.00">BRMSModle</text>
<text text-anchor="middle" x="511" y="-154" font-family="sans" font-size="10.00">GeneListWK: Sim</text>
</g>
<!-- 12&#45;&gt;13 -->
<g id="edge29" class="edge"><title>12&#45;&gt;13</title>
<path fill="none" stroke="grey" stroke-width="2" d="M538.854,-215.697C534.597,-207.644 529.444,-197.894 524.734,-188.982"/>
<polygon fill="grey" stroke="grey" stroke-width="2" points="527.808,-187.31 520.041,-180.104 521.62,-190.581 527.808,-187.31"/>
</g>
<!-- 13&#45;&gt;3 -->
<g id="edge14" class="edge"><title>13&#45;&gt;3</title>
<path fill="none" stroke="grey" stroke-width="2" d="M493.697,-143.697C485.135,-135.135 474.656,-124.656 465.304,-115.304"/>
<polygon fill="grey" stroke="grey" stroke-width="2" points="467.65,-112.701 458.104,-108.104 462.701,-117.65 467.65,-112.701"/>
</g>
<!-- 13&#45;&gt;7 -->
<g id="edge22" class="edge"><title>13&#45;&gt;7</title>
<path fill="none" stroke="grey" stroke-width="2" d="M517.427,-143.697C520.355,-135.813 523.887,-126.304 527.14,-117.546"/>
<polygon fill="grey" stroke="grey" stroke-width="2" points="530.446,-118.697 530.647,-108.104 523.884,-116.26 530.446,-118.697"/>
</g>
<!-- 13&#45;&gt;9 -->
<g id="edge26" class="edge"><title>13&#45;&gt;9</title>
<path fill="none" stroke="grey" stroke-width="2" d="M537.42,-143.876C551.41,-134.808 568.776,-123.552 583.886,-113.759"/>
<polygon fill="grey" stroke="grey" stroke-width="2" points="585.991,-116.566 592.479,-108.19 582.183,-110.692 585.991,-116.566"/>
</g>
<!-- 14 -->
<g id="node15" class="node"><title>14</title>
<path fill="none" stroke="#9fd856" stroke-width="2" stroke-dasharray="5,2" d="M292.7,-324C292.7,-324 199.3,-324 199.3,-324 193.3,-324 187.3,-318 187.3,-312 187.3,-312 187.3,-300 187.3,-300 187.3,-294 193.3,-288 199.3,-288 199.3,-288 292.7,-288 292.7,-288 298.7,-288 304.7,-294 304.7,-300 304.7,-300 304.7,-312 304.7,-312 304.7,-318 298.7,-324 292.7,-324"/>
<text text-anchor="middle" x="246" y="-308" font-family="sans" font-size="10.00">creatingGOList</text>
<text text-anchor="middle" x="246" y="-298" font-family="sans" font-size="10.00">GOList: GOthreeComb</text>
</g>
<!-- 14&#45;&gt;4 -->
<g id="edge16" class="edge"><title>14&#45;&gt;4</title>
<path fill="none" stroke="grey" stroke-width="2" d="M257.014,-287.698C263.268,-277.513 271.018,-264.263 277,-252 299.369,-206.139 320.196,-150.36 331.701,-117.947"/>
<polygon fill="grey" stroke="grey" stroke-width="2" points="335.083,-118.881 335.099,-108.286 328.479,-116.558 335.083,-118.881"/>
</g>
<!-- 14&#45;&gt;11 -->
<g id="edge28" class="edge"><title>14&#45;&gt;11</title>
<path fill="none" stroke="grey" stroke-width="2" d="M233.888,-287.697C228.132,-279.474 221.138,-269.483 214.794,-260.421"/>
<polygon fill="grey" stroke="grey" stroke-width="2" points="217.575,-258.29 208.973,-252.104 211.84,-262.304 217.575,-258.29"/>
</g>
<!-- 15 -->
<g id="node16" class="node"><title>15</title>
<path fill="none" stroke="#d85656" stroke-width="2" stroke-dasharray="5,2" d="M767.128,-180C767.128,-180 718.872,-180 718.872,-180 712.872,-180 706.872,-174 706.872,-168 706.872,-168 706.872,-156 706.872,-156 706.872,-150 712.872,-144 718.872,-144 718.872,-144 767.128,-144 767.128,-144 773.128,-144 779.128,-150 779.128,-156 779.128,-156 779.128,-168 779.128,-168 779.128,-174 773.128,-180 767.128,-180"/>
<text text-anchor="middle" x="743" y="-159" font-family="sans" font-size="10.00">BRMSModle</text>
</g>
<!-- 15&#45;&gt;6 -->
<g id="edge19" class="edge"><title>15&#45;&gt;6</title>
<path fill="none" stroke="grey" stroke-width="2" d="M750.416,-143.697C753.794,-135.813 757.87,-126.304 761.623,-117.546"/>
<polygon fill="grey" stroke="grey" stroke-width="2" points="764.947,-118.675 765.67,-108.104 758.513,-115.917 764.947,-118.675"/>
</g>
<!-- 15&#45;&gt;8 -->
<g id="edge23" class="edge"><title>15&#45;&gt;8</title>
<path fill="none" stroke="grey" stroke-width="2" d="M730.146,-143.697C723.975,-135.389 716.463,-125.277 709.676,-116.141"/>
<polygon fill="grey" stroke="grey" stroke-width="2" points="712.479,-114.045 703.706,-108.104 706.86,-118.219 712.479,-114.045"/>
</g>
<!-- 16 -->
<g id="node17" class="node"><title>16</title>
<path fill="none" stroke="#56d89a" stroke-width="2" stroke-dasharray="5,2" d="M788.421,-252C788.421,-252 697.579,-252 697.579,-252 691.579,-252 685.579,-246 685.579,-240 685.579,-240 685.579,-228 685.579,-228 685.579,-222 691.579,-216 697.579,-216 697.579,-216 788.421,-216 788.421,-216 794.421,-216 800.421,-222 800.421,-228 800.421,-228 800.421,-240 800.421,-240 800.421,-246 794.421,-252 788.421,-252"/>
<text text-anchor="middle" x="743" y="-236" font-family="sans" font-size="10.00">creatingHitTable</text>
<text text-anchor="middle" x="743" y="-226" font-family="sans" font-size="10.00">GeneListWK: HKGList</text>
</g>
<!-- 16&#45;&gt;6 -->
<g id="edge20" class="edge"><title>16&#45;&gt;6</title>
<path fill="none" stroke="grey" stroke-width="2" d="M763.379,-215.531C772.807,-206.092 783.006,-193.597 788,-180 795.395,-159.865 790.592,-135.814 784.522,-117.793"/>
<polygon fill="grey" stroke="grey" stroke-width="2" points="787.731,-116.381 780.987,-108.211 781.164,-118.804 787.731,-116.381"/>
</g>
<!-- 16&#45;&gt;8 -->
<g id="edge24" class="edge"><title>16&#45;&gt;8</title>
<path fill="none" stroke="grey" stroke-width="2" d="M723.535,-215.828C714.099,-206.289 703.615,-193.614 698,-180 689.936,-160.449 688.479,-136.454 688.878,-118.308"/>
<polygon fill="grey" stroke="grey" stroke-width="2" points="692.383,-118.256 689.307,-108.117 685.389,-117.961 692.383,-118.256"/>
</g>
<!-- 16&#45;&gt;15 -->
<g id="edge30" class="edge"><title>16&#45;&gt;15</title>
<path fill="none" stroke="grey" stroke-width="2" d="M743,-215.697C743,-207.983 743,-198.712 743,-190.112"/>
<polygon fill="grey" stroke="grey" stroke-width="2" points="746.5,-190.104 743,-180.104 739.5,-190.104 746.5,-190.104"/>
</g>
<!-- 17 -->
<g id="node18" class="node"><title>17</title>
<path fill="none" stroke="#56d8c9" stroke-width="2" stroke-dasharray="5,2" d="M775.308,-324C775.308,-324 710.692,-324 710.692,-324 704.692,-324 698.692,-318 698.692,-312 698.692,-312 698.692,-300 698.692,-300 698.692,-294 704.692,-288 710.692,-288 710.692,-288 775.308,-288 775.308,-288 781.308,-288 787.308,-294 787.308,-300 787.308,-300 787.308,-312 787.308,-312 787.308,-318 781.308,-324 775.308,-324"/>
<text text-anchor="middle" x="743" y="-303" font-family="sans" font-size="10.00">creatingHKGList</text>
</g>
<!-- 17&#45;&gt;16 -->
<g id="edge31" class="edge"><title>17&#45;&gt;16</title>
<path fill="none" stroke="grey" stroke-width="2" d="M743,-287.697C743,-279.983 743,-270.712 743,-262.112"/>
<polygon fill="grey" stroke="grey" stroke-width="2" points="746.5,-262.104 743,-252.104 739.5,-262.104 746.5,-262.104"/>
</g>
</g>
</svg>
